<svg fill="none" height="24" viewBox="0 0 24 24" width="24" xmlns="http://www.w3.org/2000/svg"><g stroke="#292d32" stroke-linecap="round" stroke-width="1.5"><path d="m9 10c1.1046 0 2-.89543 2-2s-.8954-2-2-2c-1.10457 0-2 .89543-2 2s.89543 2 2 2z" stroke-linejoin="round"/><path d="m13 2h-4c-5 0-7 2-7 7v6c0 5 2 7 7 7h6c5 0 7-2 7-7v-5" stroke-linejoin="round"/><path d="m15.75 5h5.5"/><path d="m18.5 7.75v-5.5"/><path d="m2.67004 18.9501 4.93-3.31c.79-.53 1.93-.47 2.63996.14l.33.29c.78.67 2.04.67 2.82 0l4.16-3.57c.78-.67 2.04-.67 2.82 0l1.63 1.4" stroke-linejoin="round"/></g></svg>