<svg fill="none" height="24" viewBox="0 0 24 24" width="24" xmlns="http://www.w3.org/2000/svg"><g stroke="#292d32" stroke-linecap="round" stroke-linejoin="round" stroke-width="1.5"><path d="m14.9405 8.03998c.22.44.35.94.35 1.47-.01 1.77002-1.4 3.22002-3.16 3.27002-.07-.01-.16-.01-.24 0-1.76-.06-3.16003-1.5-3.16003-3.27002 0-1.81 1.46003-3.28 3.28003-3.28"/><path d="m18.7398 19.3801c-1.78 1.63-4.14 2.62-6.74 2.62-2.60003 0-4.96003-.99-6.74003-2.62.1-.94.7-1.86 1.77-2.58 2.74-1.82 7.22003-1.82 9.94003 0 1.07.72 1.67 1.64 1.77 2.58z"/><path d="m4 6c-1.25 1.67-2 3.75-2 6 0 5.52 4.48 10 10 10s10-4.48 10-10-4.48-10-10-10c-1.43 0-2.8.3-4.03.85"/></g></svg>