<svg fill="none" height="24" viewBox="0 0 24 24" width="24" xmlns="http://www.w3.org/2000/svg"><g fill="#292d32"><path d="m12 12.75c-3.17 0-5.75-2.58-5.75-5.75s2.58-5.75 5.75-5.75 5.75 2.58 5.75 5.75-2.58 5.75-5.75 5.75zm0-10c-2.34 0-4.25 1.91-4.25 4.25s1.91 4.25 4.25 4.25 4.25-1.91 4.25-4.25-1.91-4.25-4.25-4.25z"/><path d="m20.5901 22.75c-.41 0-.75-.34-.75-.75 0-3.45-3.5199-6.25-7.8399-6.25-4.32005 0-7.84004 2.8-7.84004 6.25 0 .41-.34.75-.75.75s-.75-.34-.75-.75c0-4.27 4.18999-7.75 9.34004-7.75 5.15 0 9.3399 3.48 9.3399 7.75 0 .41-.34.75-.75.75z"/></g></svg>