<svg fill="none" height="24" viewBox="0 0 24 24" width="24" xmlns="http://www.w3.org/2000/svg"><g stroke="#292d32" stroke-linecap="round" stroke-linejoin="round" stroke-width="1.5"><path d="m20 8.25v9.75c0 3-1.79 4-4 4h-8c-2.21 0-4-1-4-4v-9.75c0-3.25 1.79-4 4-4 0 .62.24997 1.18.65997 1.59s.97003.66 1.59003.66h3.5c1.24 0 2.25-1.01 2.25-2.25 2.21 0 4 .75 4 4z"/><path d="m16 4.25c0 1.24-1.01 2.25-2.25 2.25h-3.5c-.62 0-1.18003-.25-1.59003-.66s-.65997-.97-.65997-1.59c0-1.24 1.01-2.25 2.25-2.25h3.5c.62 0 1.18.25 1.59.66s.66.97.66 1.59z"/><path d="m8 13h4"/><path d="m8 17h8"/></g></svg>