<svg fill="none" height="24" viewBox="0 0 24 24" width="24" xmlns="http://www.w3.org/2000/svg"><g stroke="#292d32" stroke-linecap="round" stroke-linejoin="round" stroke-miterlimit="10" stroke-width="1.5"><path d="m15 12c0-1.66-1.34-3-3-3s-3 1.34-3 3 1.34 3 3 3c.41 0 .81-.08 1.17-.24"/><path d="m6.88086 20.5801 1.09.63c.79.47 1.81.19 2.28004-.6l.11-.19c.9-1.57 2.38-1.57 3.29 0l.11.19c.47.79 1.49 1.07 2.28.6l1.73-.99c.91-.52 1.22-1.69.7-2.59-.91-1.57-.17-2.85 1.64-2.85 1.04 0 1.9-.85 1.9-1.9v-1.76c0-1.04-.85-1.90003-1.9-1.90003-1.01 0-1.69-.4-1.93-1.03-.19-.49-.11-1.13.29-1.82.52-.91.21-2.07-.7-2.59l-.81-.46"/><path d="m13.64 3.57994c-.9 1.57-2.38 1.57-3.29 0l-.11-.19c-.46-.79-1.48-1.07-2.27-.6l-1.73.99c-.91.52-1.22 1.69-.7 2.6.91 1.56.17 2.84-1.64 2.84-1.04 0-1.9.84996-1.9 1.89996v1.76c0 1.04.85 1.9 1.9 1.9 1.81 0 2.55 1.28 1.64 2.85"/></g></svg>