<svg fill="none" height="24" viewBox="0 0 24 24" width="24" xmlns="http://www.w3.org/2000/svg"><g stroke="#292d32" stroke-miterlimit="10" stroke-width="1.5"><path d="m18.0206 11.8002v-2.89004c0-3.3-2.7-6-6-6-3.31002 0-6.00002 2.69-6.00002 6v2.89004c0 .61-.26 1.54-.57 2.06l-1.15 1.91c-.71 1.18-.22 2.49 1.08 2.93 4.31 1.44 8.96002 1.44 13.27002 0 1.21-.4 1.74-1.83 1.08-2.93" stroke-linecap="round"/><path d="m13.8699 3.19994c-.31-.09-.63-.16-.96-.2-.96-.12-1.88-.05-2.74.2.29-.74 1.01-1.26 1.85-1.26s1.56.52 1.85 1.26z" stroke-linecap="round" stroke-linejoin="round"/><path d="m15.0195 19.0601c0 1.65-1.35 3-3 3-.82 0-1.58-.34-2.11997-.88-.54-.54-.88-1.3-.88-2.12"/></g></svg>