<svg fill="none" height="24" viewBox="0 0 24 24" width="24" xmlns="http://www.w3.org/2000/svg"><g stroke="#292d32" stroke-linecap="round" stroke-linejoin="round" stroke-width="1.5"><path d="m13.1698 2c-4.87995 0-8.82996 3.68999-8.82996 8.24 0 .26.01001.51.04001.76.89-.58 1.96-.91 3.12-.91 3.03995 0 5.49995 2.3 5.49995 5.14 0 1.19-.4399 2.29-1.1799 3.16.44.06.8899.09 1.3499.09l4.19 2.49c.71.43 1.6-.15 1.5-.98l-.39-3.16c2.14-1.5 3.53-3.89 3.53-6.59 0-3.07001-1.7999-5.74999-4.4799-7.16999"/><path d="m4.38 11.0001c.89-.58 1.96-.91 3.12-.91 3.04 0 5.5 2.2999 5.5 5.1399 0 1.19-.44 2.2901-1.18 3.1601-.99 1.2-2.56 1.9699-4.32 1.9699l-2.61 1.55c-.44.27-1-.1-.94-.61l.25-1.9699c-1.34-.93-2.2-2.4201-2.2-4.1001 0-.3.03-.59.08-.87"/></g></svg>